<svg id="svg" version="1.1" xmlns="http://www.w3.org/2000/svg" xmlns:xlink="http://www.w3.org/1999/xlink" width="400" height="399.51159951159957" viewBox="0, 0, 400,399.51159951159957"><g id="svgg"><path id="path0" d="M253.024 105.523 C 237.472 107.543,225.322 119.230,223.350 134.066 C 221.883 145.110,223.949 151.032,235.978 170.247 C 244.002 183.066,246.537 187.999,246.845 191.390 C 247.605 199.772,238.619 205.090,230.473 201.080 C 226.441 199.095,224.175 196.270,212.933 179.207 C 173.330 119.101,173.584 119.453,166.034 114.077 C 137.182 93.532,95.712 116.664,102.618 149.451 C 104.300 157.438,105.850 160.047,127.665 191.608 C 140.660 210.408,142.197 213.365,141.762 218.722 C 141.153 226.214,135.222 231.169,126.865 231.169 C 120.076 231.169,118.908 230.477,109.291 220.766 C 99.443 210.822,95.197 208.354,85.545 206.965 C 53.367 202.337,33.736 237.441,56.677 258.586 C 63.967 265.305,69.644 267.106,83.516 267.101 C 96.091 267.095,99.031 266.134,111.528 257.940 C 135.364 242.310,149.409 242.334,174.581 258.044 C 186.452 265.453,190.274 266.886,199.071 267.223 C 210.847 267.675,216.972 265.691,229.930 257.227 C 252.875 242.239,268.671 242.467,292.108 258.125 C 302.809 265.274,307.239 266.912,316.683 267.215 C 346.345 268.165,364.461 242.286,351.670 217.236 C 349.290 212.575,345.646 206.572,334.657 189.211 C 324.502 173.167,321.935 169.019,308.073 146.254 C 293.686 122.627,290.808 118.555,285.104 113.763 C 277.363 107.259,264.702 104.007,253.024 105.523 " stroke="none" fill="#5f788a" fill-rule="evenodd"></path><path id="path1" d="M0.000 199.800 L 0.000 399.600 200.000 399.600 L 400.000 399.600 400.000 199.800 L 400.000 0.000 200.000 0.000 L 0.000 0.000 0.000 199.800 M264.083 105.508 C 275.091 106.638,283.591 110.984,290.215 118.872 C 293.728 123.055,297.021 128.104,308.073 146.254 C 321.935 169.019,324.502 173.167,334.657 189.211 C 354.870 221.145,355.426 222.348,355.434 234.166 C 355.447 254.054,339.172 267.935,316.683 267.215 C 307.239 266.912,302.809 265.274,292.108 258.125 C 268.671 242.467,252.875 242.239,229.930 257.227 C 216.972 265.691,210.847 267.675,199.071 267.223 C 190.274 266.886,186.452 265.453,174.581 258.044 C 149.409 242.334,135.364 242.310,111.528 257.940 C 99.031 266.134,96.091 267.095,83.516 267.101 C 69.644 267.106,63.967 265.305,56.677 258.586 C 33.736 237.441,53.367 202.337,85.545 206.965 C 95.197 208.354,99.443 210.822,109.291 220.766 C 118.908 230.477,120.076 231.169,126.865 231.169 C 135.222 231.169,141.153 226.214,141.762 218.722 C 142.197 213.365,140.660 210.408,127.665 191.608 C 105.850 160.047,104.300 157.438,102.618 149.451 C 95.712 116.664,137.182 93.532,166.034 114.077 C 173.584 119.453,173.330 119.101,212.933 179.207 C 224.175 196.270,226.441 199.095,230.473 201.080 C 238.619 205.090,247.605 199.772,246.845 191.390 C 246.537 187.999,244.002 183.066,235.978 170.247 C 232.338 164.433,228.472 157.946,227.386 155.833 C 213.702 129.193,233.279 102.347,264.083 105.508 " stroke="none" fill="#ffffff" fill-rule="evenodd"></path></g></svg>
